<?xml version="1.0" encoding="UTF-8"?>
<svg xmlns="http://www.w3.org/2000/svg" xmlns:xlink="http://www.w3.org/1999/xlink" width="100pt" height="100pt" viewBox="0 0 100 100" version="1.1">
<g id="surface1">
<path style=" stroke:none;fill-rule:nonzero;fill:rgb(0%,0%,0%);fill-opacity:1;" d="M 23.632812 8.984375 C 23.632812 7.367188 22.320312 6.054688 20.703125 6.054688 C 19.085938 6.054688 17.773438 7.367188 17.773438 8.984375 L 17.773438 52.929688 L 23.632812 52.929688 Z M 23.632812 8.984375 "/>
<path style=" stroke:none;fill-rule:nonzero;fill:rgb(0%,0%,0%);fill-opacity:1;" d="M 82.226562 8.984375 C 82.226562 7.367188 80.914062 6.054688 79.296875 6.054688 C 77.679688 6.054688 76.367188 7.367188 76.367188 8.984375 L 76.367188 52.929688 L 82.226562 52.929688 Z M 82.226562 8.984375 "/>
<path style=" stroke:none;fill-rule:nonzero;fill:rgb(0%,0%,0%);fill-opacity:1;" d="M 93.164062 58.789062 L 6.835938 58.789062 C 3.066406 58.789062 0 61.855469 0 65.625 L 0 81.25 C 0 85.019531 3.066406 88.085938 6.835938 88.085938 L 11.914062 88.085938 L 11.914062 91.015625 C 11.914062 92.632812 13.226562 93.945312 14.84375 93.945312 C 16.460938 93.945312 17.773438 92.632812 17.773438 91.015625 L 17.773438 88.085938 L 82.226562 88.085938 L 82.226562 91.015625 C 82.226562 92.632812 83.539062 93.945312 85.15625 93.945312 C 86.773438 93.945312 88.085938 92.632812 88.085938 91.015625 L 88.085938 88.085938 L 93.164062 88.085938 C 96.933594 88.085938 100 85.019531 100 81.25 L 100 65.625 C 100 61.855469 96.933594 58.789062 93.164062 58.789062 Z M 14.84375 76.367188 C 13.226562 76.367188 11.914062 75.054688 11.914062 73.4375 C 11.914062 71.820312 13.226562 70.507812 14.84375 70.507812 C 16.460938 70.507812 17.773438 71.820312 17.773438 73.4375 C 17.773438 75.054688 16.460938 76.367188 14.84375 76.367188 Z M 38.28125 76.367188 C 36.664062 76.367188 35.351562 75.054688 35.351562 73.4375 C 35.351562 71.820312 36.664062 70.507812 38.28125 70.507812 C 39.898438 70.507812 41.210938 71.820312 41.210938 73.4375 C 41.210938 75.054688 39.898438 76.367188 38.28125 76.367188 Z M 50 76.367188 C 48.382812 76.367188 47.070312 75.054688 47.070312 73.4375 C 47.070312 71.820312 48.382812 70.507812 50 70.507812 C 51.617188 70.507812 52.929688 71.820312 52.929688 73.4375 C 52.929688 75.054688 51.617188 76.367188 50 76.367188 Z M 61.71875 76.367188 C 60.101562 76.367188 58.789062 75.054688 58.789062 73.4375 C 58.789062 71.820312 60.101562 70.507812 61.71875 70.507812 C 63.335938 70.507812 64.648438 71.820312 64.648438 73.4375 C 64.648438 75.054688 63.335938 76.367188 61.71875 76.367188 Z M 73.4375 76.367188 C 71.820312 76.367188 70.507812 75.054688 70.507812 73.4375 C 70.507812 71.820312 71.820312 70.507812 73.4375 70.507812 C 75.054688 70.507812 76.367188 71.820312 76.367188 73.4375 C 76.367188 75.054688 75.054688 76.367188 73.4375 76.367188 Z M 73.4375 76.367188 "/>
<path style=" stroke:none;fill-rule:nonzero;fill:rgb(0%,0%,0%);fill-opacity:1;" d="M 35.507812 29.648438 C 39.386719 25.769531 44.53125 23.632812 50 23.632812 C 55.46875 23.632812 60.613281 25.769531 64.492188 29.648438 C 65.066406 30.21875 65.816406 30.507812 66.5625 30.507812 C 67.3125 30.507812 68.0625 30.21875 68.636719 29.648438 C 69.78125 28.503906 69.78125 26.648438 68.636719 25.503906 C 58.320312 15.191406 41.679688 15.1875 31.363281 25.503906 C 30.21875 26.648438 30.21875 28.503906 31.363281 29.648438 C 32.507812 30.792969 34.363281 30.792969 35.507812 29.648438 Z M 35.507812 29.648438 "/>
<path style=" stroke:none;fill-rule:nonzero;fill:rgb(0%,0%,0%);fill-opacity:1;" d="M 48.375 46.578125 C 50.347656 47.878906 52.929688 46.453125 52.929688 44.140625 C 52.929688 42.636719 51.785156 41.378906 50.289062 41.226562 C 47.230469 40.945312 45.871094 44.886719 48.375 46.578125 Z M 48.375 46.578125 "/>
<path style=" stroke:none;fill-rule:nonzero;fill:rgb(0%,0%,0%);fill-opacity:1;" d="M 60.359375 37.925781 C 61.503906 36.78125 61.503906 34.925781 60.359375 33.78125 C 57.589844 31.015625 53.910156 29.492188 50 29.492188 C 46.089844 29.492188 42.410156 31.015625 39.640625 33.78125 C 38.496094 34.925781 38.496094 36.78125 39.640625 37.925781 C 40.785156 39.070312 42.640625 39.070312 43.785156 37.925781 C 45.445312 36.265625 47.652344 35.351562 50 35.351562 C 52.347656 35.351562 54.554688 36.265625 56.214844 37.925781 C 57.359375 39.070312 59.214844 39.070312 60.359375 37.925781 Z M 60.359375 37.925781 "/>
</g>
</svg>
